<svg xmlns="http://www.w3.org/2000/svg" viewBox="0 0 960 1080"><defs><style>.cls-1{fill:#f3e7d9;}.cls-2{fill:#992c29;}.cls-3{fill:#273252;}.cls-4{fill:#1d2538;}.cls-5{fill:#c94039;}.cls-6{fill:#f5894e;}.cls-7{fill:#ee5d4f;}.cls-8{fill:#121721;}.cls-9{fill:#f7bc4b;}.cls-10{fill:#ce9436;}.cls-11{fill:none;stroke:#992c29;stroke-miterlimit:10;}.cls-12{fill:#29abe2;}.cls-13{fill:#cc6d3d;}.cls-14{fill:#3e4c6f;}.cls-15{fill:#34283a;}.cls-16{fill:#288453;}.cls-17{fill:#856792;}.cls-18{fill:#bb83c3;}.cls-19{fill:#665070;}.cls-20{fill:#4b3355;}.cls-21{fill:#33a86d;}</style></defs><title>29_projmanagement</title><g id="cloud3"><path class="cls-1" d="M421,177S244,286,181,314s-68,4-72-3,5-40,26-40c0,0-15-28,2-52s102-58,185-31c0,0-7-31,37-44s34,17,34,17,41-13,33-6c0,0,66-37,62-27S421,177,421,177Z"/></g><g id="cloud2"><path class="cls-1" d="M317,480s-102,66-135,75-36-3-28-19,34-12,34-12-7-23,9-28,33,4,33,4-26-39,23-56,48,35,48,35S342,464,317,480Z"/></g><g id="cloud1"><path class="cls-1" d="M824,448s-28,16-47,20-21-34,2-52,68,7,68,7,4-25,19-23,13,9,13,9,18-19,25-14-2,12-2,12,40-18,16-3S824,448,824,448Z"/></g><g id="hood"><path class="cls-2" d="M570.82,392.87c-14.15-19,32.56-43.63,58.82-50.93,16.27-4.52,36.87-.53,43.27,5.25,2.19,2,12.92,14,15.94,21.16,3.28,7.86,6.06,44.94-9.28,46.65C658.55,417.35,585,411.84,570.82,392.87Z"/><path class="cls-1" d="M591.4,394.56c-8.12-13,7.63-36.59,29-44.92,24.81-9.71,45.08-2.29,47.81,5.75s-12.9,23.92-28.75,33.06S595,400.37,591.4,394.56Z"/><path class="cls-3" d="M632.72,379.88c13.95-13.64,18.41-13.06,17-22.49-2.24-15.23-38.36,3.16-45.89,6.3S584.7,391,594.53,402.83,618.77,393.52,632.72,379.88Z"/></g><g id="right_arm" data-name="right arm"><path class="cls-3" d="M554.49,385s-20-4-29.53,14.25c-4.31,8.25-15.59,36-25.59,57.23-12,25.61-22.21,45-16.08,52,17,19.25,23.34,26.38,33.23,9S600,382.67,554.49,385Z"/><path class="cls-4" d="M554.49,385s-20-4-29.53,14.25-20.05,50.9-20.05,50.9L516,441.48l11.08,57.76S600,382.67,554.49,385Z"/></g><g id="right_forearm" data-name="right forearm"><path class="cls-5" d="M433.44,451.24s-11,10.08-3.43,21.36c9.58,14.2,28.25,43.83,35.34,55.92,7.21,12.29,34,20.83,45.1-4C517.5,508.79,481.18,470,481.18,470s3.81-19.62-14.51-25.06S433.44,451.24,433.44,451.24Z"/><path class="cls-2" d="M433.44,451.24s-11,10.08-3.43,21.36c9.58,14.2,28.25,43.83,35.34,55.92,7.21,12.29,34,20.83,45.1-4-29.67,18.2-34-4.75-34-4.75s-21-19.38-29.28-38C439.24,474.32,433.44,451.24,433.44,451.24Z"/><path class="cls-1" d="M441.09,449.4s-11.34,4.48-9,9.62,3.56,8.31,13.45,7.12,17.41-3.16,20.18-8.3,2-9.5-1.59-11.08-30.06,4.35-30.06,4.35"/><path class="cls-2" d="M439.24,473.53c1.58,0,14.24,7.51,24.53,8.31C468.5,482.2,459,485,448,485S439.24,473.53,439.24,473.53Z"/></g><g id="right_hand" data-name="right hand"><path class="cls-6" d="M458.49,454.67c-3.95,3.56-22.15,6.33-24.92,2s-10.68-25.72-8.31-36,11.87-23.74,22.55-24.53,33.63,20.18,22.55,38.37C470.36,434.49,462.45,451.11,458.49,454.67Z"/><path class="cls-1" d="M433.54,453.86l-18.83-3.3c-5-.87-6.08-5.54-2.47-10.43l30.14-40.88c3.61-4.89,10.56-8.15,15.53-7.28l18.83,3.31c5,.87,6.07,5.54,2.47,10.43l-30.15,40.88C445.46,451.48,438.51,454.73,433.54,453.86Z"/><path class="cls-4" d="M433.63,452.32l-17-3c-4.47-.79-5.47-5-2.22-9.4l29.92-40.06A12,12,0,0,1,456.7,395l17.73,2.12c4.48.78,5.48,5,2.23,9.39l-29,39.21C444.37,450.17,438.1,453.1,433.63,452.32Z"/><path class="cls-6" d="M446.63,389.4s-9.5-2-11.08,3.16,2,12.26,1.19,14.64,10.28-1.58,11.07-6.73S451,390.58,446.63,389.4Z"/><path class="cls-6" d="M437.92,400.47s-7.12-4-10.28.4,0,8.7,1.18,11.47,3.17,5.14,6.33,1.58S441.48,404.82,437.92,400.47Z"/><path class="cls-6" d="M430.74,410.76c-2.89-.79-5.13-.79-7.37.79s-1,7.91-.32,12.66,5.76,3.56,7.05-1.58S433.62,411.55,430.74,410.76Z"/><path class="cls-6" d="M424.08,419.07s-7.52,1.58-7.52,6.72,3.56,7.12,5.93,2.77S426.45,423,424.08,419.07Z"/><path class="cls-6" d="M466.41,433.57c4.58,2.17,10.55-8.44,15.29-23.73,1.64-5.29-8.91-2-11.53,2.29C464.82,420.91,461.83,431.4,466.41,433.57Z"/></g><g id="leg"><path class="cls-7" d="M720.12,915.36,694.8,918c-25.32,2.68-43.24-6.56-52.22,18-9.76,26.64,14,24.9,29.28,25,18.72.08,18.19-2.68,39.56-2.68s13.45-4.48,14.24-22.36-4.22-19.18-4.22-19.18Z"/><path class="cls-8" d="M725.82,933.55c-.76,18.52,6,21.16-14.4,21.16s-24.27,1.06-40.35,1.85c-14.62.72-38.24.14-26.9-23.93s28-14.82,52.17-17.59l24.19-2.78S726.58,915,725.82,933.55Z"/><path class="cls-4" d="M704.3,564.12l14.63,198.2s.4,55.78,2,81.89,11.08,67.25,8.71,75.95S708.25,928.87,694,932s-26.11-14.24-28.48-15-34.82-295.91-38.77-314.9-2.38-30.86,41.93-44.31S704.3,564.12,704.3,564.12Z"/><path class="cls-3" d="M704.3,564.12l-.79,61.72-16.62,40.35,1.19,19L662,676.87s-31.26-55.78-35.21-74.77-2.38-30.86,41.93-44.31S704.3,564.12,704.3,564.12Z"/><ellipse class="cls-3" cx="623.59" cy="590.23" rx="75.16" ry="37.19"/></g><g id="torso"><path class="cls-9" d="M627.86,371.09s-29.76-3.26-59,5.29C554.43,380.59,534.7,409,534.7,444s10.16,132.46,10.16,132.46l118.29-4.05S664.44,376,627.86,371.09Z"/><path class="cls-10" d="M609.59,526l-36.83-61-3.92-88.58C554.43,380.59,534.7,409,534.7,444s10.16,132.46,10.16,132.46S582.45,589,603.81,589s59.34-16.61,59.34-16.61-41-24-59.84-33.49C589.87,532.15,590.75,519,590.75,519Z"/><path class="cls-6" d="M616.87,372.25c0,11.95-9.47,35.66-20.73,36.05s-22.47-14.66-22.47-26.61,11.36-14.59,22.62-15S616.87,362.89,616.87,372.25Z"/><path class="cls-11" d="M577.24,371.51C561.78,388.19,585,447.6,595,445.28s36-74.47,18.36-79.18"/><ellipse class="cls-12" cx="596.27" cy="450.79" rx="3.64" ry="6.39" transform="matrix(0.97, -0.25, 0.25, 0.97, -93.92, 163.75)"/><path class="cls-1" d="M562.67,578s1.19,5.54-2,8.3-22.15,1.59-28.48,1.19-3.35-6-3.35-6S563.46,577.57,562.67,578Z"/><path class="cls-2" d="M568.74,378.19c-28.12,7.19-21.27,6-26.9,7.38-3.82.95-11.53,20.94-12.14,29.54-4.22,47.47.53,59.6-.52,70.68-1,10.59,5.57,35.82,1.51,48.32s-5.89,41.34-1.83,47.37,36.58-2.33,36.58-2.33l4.81-47.1s-14-35.74-14.07-63.11c0-11-.31-29.19,3.33-45.65C564.92,398.73,570.56,377.72,568.74,378.19Z"/><path class="cls-1" d="M568.33,373.84c-8.69.44-11.51,3.25-16.06,7.21s-6.47,11-9.51,28.58,13.32,54.8,13.32,54.8.68-29.78,4.74-45.36S577,373.4,568.33,373.84Z"/><path class="cls-5" d="M633.86,456.85s2.09,32.58,24.28,34.77C658.14,491.62,645.3,478.5,633.86,456.85Z"/><path class="cls-6" d="M566.74,333.38l10.44,47.38s5.37,8.86,21.69,6.25,18.21-14.24,18.21-14.24L606,319.68Z"/><path class="cls-13" d="M565,323.34s8,13.48,18.57,30.47l18.9,16.72,4.78,29.28c10.29-13.45,9.5-29.54,9.5-29.54L603.58,309.7Z"/><path class="cls-1" d="M646.3,583c-3.38,1.21,5,11.36,5,11.36s50.88-1.63,57.28-9.87L706.69,574S649,582.05,646.3,583Z"/><path class="cls-2" d="M626.51,376.09c-7,8.26-12.19,58.62-11.28,89.09s16.35,71.54,17,90.72,7.45,25.16,11.28,28.66,58.93-3.37,58.93-3.37,24.76,1.41,2.44-42.11c-13.8-26.89-.24-132-27-160.55C667.92,367.88,633.54,367.84,626.51,376.09Z"/><path class="cls-5" d="M625,374.93c-7,8.25-10.68,59.78-9.77,90.25s16.35,71.54,17,90.72,7.45,25.16,11.28,28.66c2.54,2.34,30.2-29,30.2-29L686.32,529,661.88,375s-4-5.83-15.87-5.48C640.28,369.7,632,366.68,625,374.93Z"/><path class="cls-1" d="M615.68,454.14s-4.17-.07-5.27-15.82c-2.11-30.07,3.43-60.4,11.86-68.31,5.18-4.85,29.73-5.46,26.11-.26-13.18,19-23.2,38.5-24.26,57S615.68,454.14,615.68,454.14Z"/><path class="cls-1" d="M655.9,552.47l-4.06,3.11s9.08,17.4,24.34,15.86l.29-4S664.93,567.74,655.9,552.47Z"/></g><g id="left_arm" data-name="left arm"><path class="cls-3" d="M661.14,520c-14.39,10.33-30.11,2.72-29.7-26.08s7.21-24.46,6.71-63.58c-.29-22.82,3.85-47.82,17.08-51.08s19.47,3.26,29.72,24.45c3.61,7.48-.84,21.74-1.13,41.84C683.4,475.59,670.45,513.33,661.14,520Z"/><path class="cls-4" d="M661.1,522.46c-14.39,10.32-25.32.27-24.91-28.53.1-7.46,27.22-50.13,27.22-50.13L675.26,445l-3-42.8-17.08-23c13.23-3.27,19.47,3.26,29.72,24.45,3.61,7.48-.84,21.74-1.13,41.84C683.4,475.59,670.41,515.78,661.1,522.46Z"/></g><g id="left_hand" data-name="left hand"><path class="cls-13" d="M540.58,441c-6.41-10.81-22-14.61-17-12.79s-10.54-5.17-16.44-4.49c-4.34.49-.63,8.43,3.09,9.6s5.33,1.38,10,7.61S543.81,446.43,540.58,441Z"/><path class="cls-1" d="M506.81,472.48l17-1c4.48-.26,5.69-4.49,2.71-9.45L499.91,418.1c-3-5-7.42-6.32-11.89-6.06l-17,1c-4.47.26-5.68,4.49-2.7,9.45L493.3,464C496.28,468.93,502.33,472.74,506.81,472.48Z"/><polygon class="cls-4" points="483.23 426.62 478.67 424.69 479.72 421.22 484.55 423.64 483.23 426.62"/><polygon class="cls-4" points="475.02 424.26 473.01 423.41 473.47 421.87 475.61 422.94 475.02 424.26"/><polygon class="cls-4" points="522.62 461.69 520.6 460.85 521.06 459.31 523.2 460.38 522.62 461.69"/><polygon class="cls-4" points="497.53 425.01 492.98 423.09 494.02 419.61 498.86 422.04 497.53 425.01"/><polygon class="cls-4" points="503.23 463.65 498.67 461.73 499.72 458.25 504.55 460.67 503.23 463.65"/><polygon class="cls-4" points="517.54 462.05 512.98 460.12 514.03 456.65 518.86 459.07 517.54 462.05"/><path class="cls-6" d="M535.35,469.57s-9.31.94-14.92-2.8c-4.18-2.8-11.23-.71-11.23-.71s-6.7,1.69-13.6,4.07c-3,1.05-3.64-2.32-4.35-3.22-2.07-2.64,8.15-10,8.15-10s-10.78,7.86-13.26,4.7c-3.57-4.55,6-10,6-10S481.58,456.6,480,454.4c-2.53-3.55.26-9.33,12.29-13.22l-7.48,1.91s-6.53,1.88-4-5c1.17-3.17,25-9,25-9s20.08,2.37,27.31,5.51c6.86,3,15.95,12.52,17,16.77.51,2-5.11,18.57-7.65,19.13C540.71,471,535.35,469.57,535.35,469.57Z"/><path class="cls-13" d="M537.55,470c-.44-.27-2.36-6.65-2.57-7.12-1-2.26-4.66-4.15-6.8-4.93-2.49-.91-11.15-3.51-11.15-3.51L512.76,445c-.87-.7-.68-9.48-.68-9.48l-1.85-5.76s15.63,1.81,22.86,5c6.86,3,15.95,12.52,17,16.77.51,2-8.63,18.93-8.63,18.93S538.46,470.52,537.55,470Z"/></g><g id="left_forearm" data-name="left forearm"><path class="cls-5" d="M665.33,518.16c.95-6.85,8.07-22.47-12.32-35.6-3.48-2.24-13.85-5.15-18.6-7.08-31.67-12.93-42.38-17.74-57.58-23.74-15-5.91-23.26-9-27,2.07s-7,28.82-2.77,32c9.48,7.11,14,5.54,14,5.54a199.41,199.41,0,0,0,27.13,13.31c16.54,6.7,28.27,26.78,47.48,25.42C655.42,528.67,664.22,526.14,665.33,518.16Z"/><path class="cls-2" d="M665.33,518.16c.95-6.85,8.07-22.47-12.32-35.6-3.48-2.24-13.85-5.15-18.6-7.08-31.67-12.93-42.38-17.74-57.58-23.74-15-5.91,21.19,16.49,21.19,16.49s11.6,7,21.62,14.57,19.78,33.58,19.78,33.58l-9,13.19s6.16-.49,5.25.49C655.42,528.67,664.22,526.14,665.33,518.16Z"/><path class="cls-1" d="M548.69,447.81s2.83-1.26,4.58,2.17-.18,17.79-7.22,25.13c-1.14,1.2-7.12-2.37-7.12-2.37a89,89,0,0,1,5-10.42C547.37,456.25,548.69,447.81,548.69,447.81Z"/></g><g id="head"><path class="cls-4" d="M618.58,326.84c-9.84,31.13-20.29,38.66-20.29,38.66-46.46,9.34-68-26.6-68.55-56.43C528,278.27,527,272,560.47,267.86,607.07,262.11,627.34,299.11,618.58,326.84Z"/><path class="cls-4" d="M618.58,326.84c-9.84,31.13-20.29,38.66-20.29,38.66-46.46,9.34-66.94-23.65-67.51-53.48-1.75-30.81-6.09-35,32.53-41.95C616.93,260.42,627.34,299.11,618.58,326.84Z"/><path class="cls-14" d="M626,336.84c-8.39,26.55-50.89,18.62-50.89,18.62-7.6-3.69-11.86-46.33-15.1-63.16-2.8-14.52-13.34-32.35,27.44-32.16C623.73,260.31,633.51,313.21,626,336.84Z"/><path class="cls-13" d="M561,271.43s-23.89,15.62-27.67,20.73-2.21,55.93,7.37,71.11c9.44,15,60.76,7.72,71.23-4.9,8.58-10.33,5.34-19.48,5.84-35.22.52-16.57-10.39-22.78-17.74-33C593.58,281.1,561,271.43,561,271.43Z"/><path class="cls-13" d="M625.17,315.16C624,324.6,618.51,333.1,614.68,333s-6.06-7.82-4.92-17.33,5.24-17.19,9.1-17.05S626.33,305.69,625.17,315.16Z"/><path class="cls-6" d="M537.79,299.28c-7.66,6.11-4.6,60.61,10.33,66.77s27.39,2.61,36.39-7.1c7.88-8.49-1.14-45.59-13.88-52.84C555,297.24,545.44,293.16,537.79,299.28Z"/><path class="cls-14" d="M599.81,287.52s3,18.59,6.56,25.44l9.42,8.59-5-32.46Z"/><path class="cls-4" d="M593.05,276.87s11.74,4.88-34.69,15.89c-14.06,3.34-28.09,5.76-35.22,5-17.5-1.77,8.2-37,37.62-41.17C590.5,252.42,593.05,276.87,593.05,276.87Z"/><path class="cls-14" d="M560.89,256.25c-23.5,4.32-46,28.64-31.95,30.05,4,.4,10.36.83,18,.93,13.14-3.37,26.33-11.59,26.33-11.59-.25,6.52-7.42,9.83-15.38,11.49a207.44,207.44,0,0,0,21.67-1.78c12.21-1.71,13.57-1.2,14-5.35C594.49,271.55,586.27,251.58,560.89,256.25Z"/><path class="cls-15" d="M577,320.89c.62,3.57-.8,5.43-2.58,5.74s-3.27-1.05-3.89-4.62.33-6.72,2.11-7S576.41,317.32,577,320.89Z"/><path class="cls-15" d="M547,325c.62,3.58-.79,5.43-2.58,5.74s-3.27-1-3.89-4.62.33-6.71,2.12-7S546.42,321.4,547,325Z"/><path class="cls-15" d="M582.08,308.15a1.12,1.12,0,0,1-1-.47h0c-.16-.21-3.79-5.17-8.42-3.2a1.14,1.14,0,0,1-1.48-.6,1.12,1.12,0,0,1,.6-1.47c5-2.15,9.48,1.65,11.13,4a1.13,1.13,0,0,1-.26,1.57A1.1,1.1,0,0,1,582.08,308.15Z"/><path class="cls-15" d="M534.34,315.58a.89.89,0,0,1-.28,0,1,1,0,0,1-.79-1.13c.78-4.43,5.4-5.79,7.73-5.88a1,1,0,0,1,1,.94,1,1,0,0,1-.93,1c-.22,0-5.18.27-5.88,4.26A1,1,0,0,1,534.34,315.58Z"/></g><g id="tree_trunk" data-name="tree trunk"><path class="cls-16" d="M326.1,970s0,30.86,68.83,26.11,118.69-4.75,118.69-4.75,103.51-9.79,211.25-11.86c123.43-2.38,47.47-14.25-95-19S326.1,970,326.1,970Z"/><path class="cls-17" d="M280.41,617.26S298.32,735,296.32,779,274,934,274,934l4,42,85,1,14,10s60-2,63-2,12-13,25-12c8.17.63,43.93,8.36,102,8,34.31-.22,76.11-3.6,76.11-3.6l-8.44-140.31S669,769,667,744s-4-143-4-143S348.49,600.53,280.41,617.26Z"/><polygon class="cls-18" points="663 601 571 614 620 620 642 968 707.46 963 677.4 895.64 663 601"/><path class="cls-19" d="M376,597s164.94-6.59,194-6c49,1,96,6,93,10s-41.66,8-68,9c-2.61.1,25,10,25,10l-80,13-97-10-6,3s-28,2-38,4c-30,1-73,3-45-9H308.32c-23,0-38.84-1.46-21-7C316.32,605,329,599,376,597Z"/><path class="cls-20" d="M404.11,598.51s108.89-4.35,128.08-4c32.34.66,60.15,6.49,58.17,9.13s-20.59,4.9-38,5.54c-1.72.07.8,4-27.69,7.12-16.53,1.84-76.35-2.37-82.28-1.58s-11.6,1-18.2,2.37c-19.81.66-116.6-1.18-98.11-9.1C326.1,608,373.09,599.83,404.11,598.51Z"/><polygon class="cls-19" points="436.67 625.64 437.28 705.74 439.41 984.01 486 976 479.43 911.64 473.26 851.33 455.86 884.56 460 692 454.67 624.25 443.59 623.07 436.67 625.64"/><polygon class="cls-19" points="496.99 621.27 514 671 515.99 622.27 496.99 621.27"/><polygon class="cls-19" points="349 647 363 764 372 850 364.08 967.64 316.6 948.65 352.21 867.95 347.46 628.21 349 647"/><polygon class="cls-19" points="603.54 979.16 599.25 931.03 594.69 873.65 609.88 932.76 619.38 975.64 603.54 979.16"/><path class="cls-19" d="M363,986c-1-2-2-59-2-59l3-55,13,115Z"/><polygon class="cls-19" points="274 976 367.24 974.76 334.01 936.78 289.7 895.64 297.62 810.19 274 976"/><polygon class="cls-19" points="346 632 350 691 353 632 346 632"/><polygon class="cls-19" points="544 839 544.63 883.44 550 931 554 864 544 839"/><polygon class="cls-17" points="633 665 635.69 757.24 646.31 759.84 649 803 651 824 655.3 849.21 659.2 828.56 649.86 758.69 642.03 748.76 633 665"/><path class="cls-20" d="M568,612.46c-13.16-2.11-56.34,7.37-18.43,7.9S581.18,614.57,568,612.46Z"/><path class="cls-19" d="M614.05,966.29l-2-41.71s3.85-51.92,3.16-55S599.86,826,599.86,826s7.82,46.08,7.74,49.34-2.82,56.55-2.82,56.55Z"/><polygon class="cls-19" points="395.73 632.96 373.57 621.88 386.23 731.07 384.65 783.29 397.31 727.9 390.98 702.58 395.73 632.96"/><path class="cls-19" d="M520.6,625.44c.77,8,1.44,95.58,1.44,95.58s-14.56,49.42-15.35,57.29.08-63.61,2.14-68.18l-2.6-52.75Z"/><polygon class="cls-17" points="436.87 903.55 457.44 928.87 430.54 944.69 436.87 903.55"/><polygon class="cls-19" points="626.76 602.1 633.09 636.12 639.42 604.47 626.76 602.1"/><path class="cls-21" d="M360.91,724.74s-20.57,12.66-3.16,12.66S375.15,727.9,360.91,724.74Z"/><path class="cls-21" d="M356.16,761.13s-1.58,25.32,11.08,9.5S370.41,751.64,356.16,761.13Z"/><path class="cls-21" d="M351.42,761.13c3.16-3.16-14.24-11.08-17.41-4.75S348.25,764.3,351.42,761.13Z"/><path class="cls-21" d="M361.31,839.46s-28.49,19-12.66,19S361.31,839.46,361.31,839.46Z"/><path class="cls-21" d="M351.81,814.14c14.23,7.11,12.66,17.41,3.17,17.41S345.48,811,351.81,814.14Z"/><path class="cls-21" d="M548.61,862.33c-3.91-7.81-20.33-6.25-11.73,2.35S552.52,870.15,548.61,862.33Z"/><path class="cls-21" d="M559.9,883.37s-26.11,14.25-4.75,14.25S570.58,883.37,559.9,883.37Z"/><path class="cls-21" d="M391.77,673.31c-14.24,1.58-26.9,20.57-6.33,23.73S406,671.73,391.77,673.31Z"/><path class="cls-21" d="M401.26,706.54c-8.7.79-22.94,14.24-.79,15.82S410,705.75,401.26,706.54Z"/><path class="cls-21" d="M394.93,735.81s-9.71,8.05,1.87,7.59S409.18,734.23,394.93,735.81Z"/></g><g id="cards"><path class="cls-1" d="M409.7,544.29H390.58c-5,0-6.4-4.35-3-9.7l27.64-44.84c3.37-5.36,7.19-9.67,12.23-9.67h22.65c5,0,6.4,4.35,3,9.7l-28.17,44.81C421.56,539.94,414.74,544.29,409.7,544.29Z"/><path class="cls-4" d="M410.32,542.4h-18c-4.75,0-6-4.09-2.86-9.13L416,491.1c3.17-5,7.34-9.23,12.09-9.23l20.24.1c4.75,0,6,4.09,2.86,9.13l-26.52,42.17C421.49,538.31,415.07,542.4,410.32,542.4Z"/><path class="cls-1" d="M454.17,542.9h24.26c5,0,4.29-4.13,1.94-9.22l-19.69-42.61c-2.35-5.09-4.55-9.22-9.52-9.22H426.9c-5,0-5.36,4.13-3,9.22l20.67,44.41C446.93,540.57,449.2,542.9,454.17,542.9Z"/><ellipse class="cls-4" cx="443.38" cy="494.52" rx="1.94" ry="3.08" transform="translate(-211.18 607.18) rotate(-57.89)"/><ellipse class="cls-4" cx="443.03" cy="498.06" rx="1.94" ry="3.08" transform="translate(-214.34 608.54) rotate(-57.89)"/><ellipse class="cls-4" cx="447.41" cy="498.06" rx="1.94" ry="3.08" transform="translate(-212.29 612.24) rotate(-57.89)"/><path class="cls-4" d="M445.88,502.44h3.18s-1.67-.28-3.72-4C447,502.26,445.88,502.44,445.88,502.44Z"/><ellipse class="cls-4" cx="451.5" cy="509.83" rx="1.94" ry="3.08" transform="matrix(0.53, -0.85, 0.85, 0.53, -220.34, 621.23)"/><ellipse class="cls-4" cx="451.15" cy="513.37" rx="1.94" ry="3.08" transform="translate(-223.5 622.58) rotate(-57.89)"/><ellipse class="cls-4" cx="455.52" cy="513.37" rx="1.94" ry="3.08" transform="translate(-221.45 626.29) rotate(-57.89)"/><path class="cls-4" d="M454,517.75h3.17s-1.66-.28-3.71-4C455.12,517.56,454,517.75,454,517.75Z"/><ellipse class="cls-4" cx="458.8" cy="522.98" rx="1.94" ry="3.08" transform="translate(-228.06 633.56) rotate(-57.89)"/><ellipse class="cls-4" cx="458.44" cy="526.51" rx="1.94" ry="3.08" transform="translate(-231.22 634.92) rotate(-57.89)"/><ellipse class="cls-4" cx="462.82" cy="526.51" rx="1.94" ry="3.08" transform="translate(-229.17 638.63) rotate(-57.89)"/><path class="cls-4" d="M461.3,530.89h3.17s-1.66-.28-3.71-4C462.42,530.71,461.3,530.89,461.3,530.89Z"/><path class="cls-1" d="M476.22,544.57H457.1c-5,0-6.94-4.41-4.23-9.85l22.62-45.47c2.71-5.44,9-9.85,14-9.85h19.11c5.05,0,6.94,4.41,4.24,9.85l-22.63,45.47C487.55,540.16,481.26,544.57,476.22,544.57Z"/><path class="cls-4" d="M476,543H458.82c-4.55,0-6.26-4-3.82-8.87l22.55-44.63a12.06,12.06,0,0,1,11.32-6.9h17.22c4.55,0,6.26,4,3.82,8.87l-21.23,42.66C486.25,539.06,480.59,543,476,543Z"/><path class="cls-1" d="M522.63,542.69h18c4.76,0,6.55-4.16,4-9.3L521.9,487.92c-2.56-5.13-7.07-6.75-11.84-6.75H492c-4.77,0-6.56,4.16-4,9.29l21.36,42.93C511.93,538.53,517.86,542.69,522.63,542.69Z"/><path class="cls-4" d="M513.77,502.57s.56,2.82-3.1,1.47c-3.09-1.14-1.53-4.27.09-7.07Z"/><path class="cls-4" d="M513.77,502.57s2.24,2.46,4.48,1.15c1.88-1.1-4.4-5.61-7.49-6.75Z"/><path class="cls-4" d="M513.43,501.49s1.52,4.06,1.35,5.36l1.81-.52A16,16,0,0,1,513.43,501.49Z"/><path class="cls-4" d="M520.89,517s-.57-2.82,3.1-1.47c3.08,1.14,1.52,4.26-.1,7.07Z"/><path class="cls-4" d="M520.89,517s-2.25-2.46-4.48-1.15c-1.89,1.1,4.39,5.61,7.48,6.75Z"/><path class="cls-4" d="M521.22,518s-1.52-4.06-1.35-5.36l-1.81.52A16,16,0,0,1,521.22,518Z"/><path class="cls-4" d="M495.36,489.36s.19,1-1,.5c-1-.39-.52-1.46,0-2.42Z"/><path class="cls-4" d="M495.36,489.36s.76.85,1.51.4-1.48-1.93-2.52-2.32Z"/><path class="cls-4" d="M495.25,489a7.07,7.07,0,0,1,.45,1.84l.61-.18A5.65,5.65,0,0,1,495.25,489Z"/><path class="cls-1" d="M370.88,609.6l-22.56-.07c-5,0-6.67-4.4-3.63-9.83l27.43-48.13c3-5.43,5.66-7.06,10.71-7.06l21,0c5.05,0,6.68,4.4,3.64,9.83l-25.4,45.39C379,605.13,375.93,609.6,370.88,609.6Z"/><path class="cls-4" d="M370.8,608.07,350.13,608c-4.54,0-6-4-3.27-8.86l26.7-46.58c2.73-4.89,5.93-6.18,10.48-6.18h17.88c4.54,0,5.18,5.29,2.44,10.18l-23.82,42.58C377.8,604,375.34,608.07,370.8,608.07Z"/><path class="cls-1" d="M415.72,606.8h18c4.76,0,6.55-4.13,4-9.22L415,552.5c-2.55-5.09-7.07-6.69-11.83-6.69H385.11c-4.76,0-6.55,4.13-4,9.22l21.36,42.56C405,602.67,411,606.8,415.72,606.8Z"/><path class="cls-4" d="M410.31,575s.63,3.14-3.41,1.63c-3.39-1.26-1.67-4.73.11-7.85Z"/><path class="cls-4" d="M410.31,575s2.47,2.74,4.93,1.28c2.07-1.22-4.84-6.24-8.23-7.5Z"/><path class="cls-4" d="M409.94,573.75s1.68,4.52,1.49,6l2-.58A17.82,17.82,0,0,1,409.94,573.75Z"/><path class="cls-4" d="M388.46,553.93s.19,1-1,.5c-1-.39-.51-1.46,0-2.41Z"/><path class="cls-4" d="M388.46,553.93s.75.83,1.51.39-1.49-1.91-2.52-2.3Z"/><path class="cls-4" d="M388.34,553.56a6.92,6.92,0,0,1,.46,1.82l.61-.17A5.55,5.55,0,0,1,388.34,553.56Z"/><path class="cls-1" d="M435.22,607H416.1c-5,0-6.94-4.26-4.67-9.51l22.62-43.92c3.15-5.25,8.06-9.41,13.11-9.41l20.48-.1c5.05,0,6.94,4.26,4.24,9.51l-24.06,46.2C445.12,605,440.26,607,435.22,607Z"/><path class="cls-4" d="M435.43,606h-18.5c-4.88,0-6.72-4.12-4.1-9.2l21.9-42.51c2.62-5.08,8.7-9.2,13.58-9.2h18.51c4.88,0,6.71,4.12,4.09,9.2l-23.33,44.79C445,604.17,440.32,606,435.43,606Z"/><path class="cls-1" d="M491.85,606H510.4c4.9,0,6.74-4.25,4.11-9.48l-24.16-46c-2.63-5.24-2.88-7.28-7.78-7.28h-22.2c-4.89,0-6.73,4.24-4.11,9.48l23.8,46.58C482.69,604.55,487,606,491.85,606Z"/><polygon class="cls-4" points="472.53 559.32 467.98 556.66 469.7 552.65 474.45 555.92 472.53 559.32"/><polygon class="cls-4" points="463.45 557.6 461.44 556.43 462.2 554.65 464.3 556.1 463.45 557.6"/><polygon class="cls-4" points="490.73 599.38 486.19 596.72 487.91 592.71 492.65 595.98 490.73 599.38"/><polygon class="cls-4" points="488.08 558.66 483.54 556 485.26 551.99 490.01 555.26 488.08 558.66"/><polygon class="cls-4" points="489.74 577.53 485.2 574.87 486.91 570.86 491.66 574.13 489.74 577.53"/><path class="cls-1" d="M513.74,607H494.63c-5.05,0-6.95-4.26-4.24-9.51l22.09-44c2.71-5.26,6-9.47,11-9.47h22.65c5,0,6.94,4.26,4.23,9.51l-22.63,43.92C525.07,602.76,518.79,607,513.74,607Z"/><path class="cls-4" d="M514.13,605.17h-18c-4.75,0-6.53-4-4-8.95l21.3-41.34c2.55-4.94,6.2-9,10.95-9l20.25.1c4.75,0,6.53,4,4,9l-21.3,41.34C524.79,601.16,518.88,605.17,514.13,605.17Z"/><path class="cls-1" d="M554.4,606h24.27c5,0,4-4.19,1.37-9.36l-22.26-43.21c-2.66-5.17-5.11-9.35-10.08-9.35H523.44c-5,0-5.1,4.19-2.44,9.36l23.36,45C547,603.64,549.43,606,554.4,606Z"/><path class="cls-4" d="M563.31,593.3s2.77,3.13,5.17,1.6c2-1.28-5.22-6.61-8.61-7.82Z"/><path class="cls-4" d="M563.31,593.3S564,596.46,560,595c-3.39-1.21-2.13-6.66-.12-7.94Z"/><path class="cls-4" d="M574.21,600.55s.91,1.05,1.69.54-1.7-2.21-2.81-2.61Z"/><path class="cls-4" d="M574.21,600.55s.24,1.06-1.08.58c-1.11-.4-.7-2.22,0-2.65Z"/><path class="cls-4" d="M542.6,555.5s-.62-3.14,3.41-1.63c3.39,1.26,2,6.62-.11,7.85Z"/><path class="cls-4" d="M542.6,555.5s-2.71-3.15-5.17-1.69c-2.07,1.22,5.08,6.65,8.47,7.91Z"/><path class="cls-4" d="M526.92,552.55s-.23-1.21,1.24-.63c1.23.49.71,2.57,0,3Z"/><path class="cls-4" d="M526.92,552.55s-1-1.22-1.88-.65,1.85,2.57,3.08,3.06Z"/><rect class="cls-4" x="363.75" y="543.25" width="198.32" height="2.51" rx="1.26"/><rect class="cls-4" x="419.63" y="478.58" width="98.53" height="2.51" rx="1.26"/></g><g id="grass"><path class="cls-16" d="M273,943s-50,2-60,6,4,8,4,8-62,0-67,7,46,5,46,5,44,6,87-1S323,941,273,943Z"/><path class="cls-21" d="M299,930s-8-31-31-20,3,38,3,38-10-12-22,1-7,26-7,26-4-9-24,1-25,19-25,19,17,4,40,0,78-12,88-12-23,9,10,9,47,5,44-3-7-27-17-22c0,0-4-17-22-14s-18,19-18,19-8-33-19-23C299,949,318,928,299,930Z"/><path class="cls-21" d="M362,910c-12,3-21,14-7,19S374,907,362,910Z"/><path class="cls-21" d="M408,948s-9-21-17-8,6,22,6,22-21-10-20,0,19,13,19,13-12,15,12,19,70-3,70-7-36-4-36-4,22-14,3-22-18,11-18,11S419,940,408,948Z"/><path class="cls-21" d="M476,996s-59,3-29,8S496,994,476,996Z"/><path class="cls-21" d="M535,987s-13-20,1-31,17,15,17,15,6-17,14-9,0,15,0,15,14-13,29-9,17,6,7,9,42,4-11,12S535,987,535,987Z"/><path class="cls-21" d="M476,938c-10,7-3,16,6,14S486,931,476,938Z"/><path class="cls-21" d="M380,895c-4,7,13,21,13,7S384,888,380,895Z"/><path class="cls-21" d="M368,874s4,16,10,8S375,865,368,874Z"/><path class="cls-16" d="M665.54,969c-12-.1-26.08-27.13-12.86-38.15s20.21,15.55,20.21,15.55,7.41-21.61,16.21-11.24,2.15,28.92,2.15,28.92,20.08-26.56,21.75-17.66c0,0,9.3-9.72,19.32,3.58s-3.25,10.26-3.25,10.26,58.14-.31,24.38,4.21S677.59,969.11,665.54,969Z"/><path class="cls-16" d="M649,902s-2,22,9,13S660,893,649,902Z"/></g></svg>